<?xml version="1.0" encoding="UTF-8" standalone="no"?>
<!DOCTYPE svg PUBLIC "-//W3C//DTD SVG 1.1//EN"
 "http://www.w3.org/Graphics/SVG/1.1/DTD/svg11.dtd">
<!-- Generated by graphviz version 2.40.1 (20161225.0304)
 -->
<!-- Title: G Pages: 1 -->
<svg width="134pt" height="216pt"
 viewBox="0.00 0.00 134.00 216.00" xmlns="http://www.w3.org/2000/svg" xmlns:xlink="http://www.w3.org/1999/xlink">
<g id="graph0" class="graph" transform="scale(1 1) rotate(0) translate(4 212)">
<title>G</title>
<polygon fill="#ffffff" stroke="transparent" points="-4,4 -4,-212 130,-212 130,4 -4,4"/>
<!-- main -->
<g id="node1" class="node">
<title>main</title>
<ellipse fill="none" stroke="#000000" cx="63" cy="-190" rx="27.5804" ry="18"/>
<text text-anchor="middle" x="63" y="-185.8" font-family="Times,serif" font-size="14.00" fill="#000000">main</text>
</g>
<!-- foo -->
<g id="node2" class="node">
<title>foo</title>
<ellipse fill="none" stroke="#000000" cx="63" cy="-104" rx="27" ry="18"/>
<text text-anchor="middle" x="63" y="-99.8" font-family="Times,serif" font-size="14.00" fill="#000000">foo</text>
</g>
<!-- main&#45;&gt;foo -->
<g id="edge1" class="edge">
<title>main&#45;&gt;foo</title>
<path fill="none" stroke="#000000" d="M63,-171.7616C63,-160.3597 63,-145.4342 63,-132.494"/>
<polygon fill="#000000" stroke="#000000" points="66.5001,-132.2121 63,-122.2121 59.5001,-132.2121 66.5001,-132.2121"/>
<text text-anchor="middle" x="66.5" y="-142.8" font-family="Times,serif" font-size="14.00" fill="#000000">2</text>
</g>
<!-- bar -->
<g id="node3" class="node">
<title>bar</title>
<ellipse fill="none" stroke="#000000" cx="27" cy="-18" rx="27" ry="18"/>
<text text-anchor="middle" x="27" y="-13.8" font-family="Times,serif" font-size="14.00" fill="#000000">bar</text>
</g>
<!-- foo&#45;&gt;bar -->
<g id="edge2" class="edge">
<title>foo&#45;&gt;bar</title>
<path fill="none" stroke="#000000" d="M55.7149,-86.5966C50.6889,-74.5902 43.9107,-58.3977 38.2018,-44.76"/>
<polygon fill="#000000" stroke="#000000" points="41.3643,-43.2504 34.2743,-35.3775 34.9072,-45.9534 41.3643,-43.2504"/>
<text text-anchor="middle" x="51.5" y="-56.8" font-family="Times,serif" font-size="14.00" fill="#000000">2</text>
</g>
<!-- baz -->
<g id="node4" class="node">
<title>baz</title>
<ellipse fill="none" stroke="#000000" cx="99" cy="-18" rx="27" ry="18"/>
<text text-anchor="middle" x="99" y="-13.8" font-family="Times,serif" font-size="14.00" fill="#000000">baz</text>
</g>
<!-- foo&#45;&gt;baz -->
<g id="edge3" class="edge">
<title>foo&#45;&gt;baz</title>
<path fill="none" stroke="#000000" d="M70.2851,-86.5966C75.3111,-74.5902 82.0893,-58.3977 87.7982,-44.76"/>
<polygon fill="#000000" stroke="#000000" points="91.0928,-45.9534 91.7257,-35.3775 84.6357,-43.2504 91.0928,-45.9534"/>
<text text-anchor="middle" x="86.5" y="-56.8" font-family="Times,serif" font-size="14.00" fill="#000000">2</text>
</g>
</g>
</svg>
