<?xml version="1.0" encoding="UTF-8" standalone="no"?>
<!DOCTYPE svg PUBLIC "-//W3C//DTD SVG 1.1//EN"
 "http://www.w3.org/Graphics/SVG/1.1/DTD/svg11.dtd">
<!-- Generated by graphviz version 2.40.1 (20161225.0304)
 -->
<!-- Title: G Pages: 1 -->
<svg width="1063pt" height="620pt"
 viewBox="0.00 0.00 1063.14 620.00" xmlns="http://www.w3.org/2000/svg" xmlns:xlink="http://www.w3.org/1999/xlink">
<g id="graph0" class="graph" transform="scale(1 1) rotate(0) translate(4 616)">
<title>G</title>
<polygon fill="#ffffff" stroke="transparent" points="-4,4 -4,-616 1059.1402,-616 1059.1402,4 -4,4"/>
<!-- main -->
<g id="node1" class="node">
<title>main</title>
<ellipse fill="none" stroke="#000000" cx="418.6527" cy="-594" rx="27.5804" ry="18"/>
<text text-anchor="middle" x="418.6527" y="-589.8" font-family="Times,serif" font-size="14.00" fill="#000000">main</text>
</g>
<!-- basename -->
<g id="node2" class="node">
<title>basename</title>
<ellipse fill="none" stroke="#000000" cx="134.6527" cy="-378" rx="44.9423" ry="18"/>
<text text-anchor="middle" x="134.6527" y="-373.8" font-family="Times,serif" font-size="14.00" fill="#000000">basename</text>
</g>
<!-- main&#45;&gt;basename -->
<g id="edge1" class="edge">
<title>main&#45;&gt;basename</title>
<path fill="none" stroke="#000000" d="M391.311,-590.2748C335.4556,-581.0461 208.8781,-551.4903 153.6527,-468 141.5181,-449.6548 136.941,-424.9976 135.3017,-406.1308"/>
<polygon fill="#000000" stroke="#000000" points="138.7882,-405.8071 134.6524,-396.0529 131.8027,-406.2572 138.7882,-405.8071"/>
</g>
<!-- add_envopt -->
<g id="node3" class="node">
<title>add_envopt</title>
<ellipse fill="none" stroke="#000000" cx="418.6527" cy="-522" rx="51.2329" ry="18"/>
<text text-anchor="middle" x="418.6527" y="-517.8" font-family="Times,serif" font-size="14.00" fill="#000000">add_envopt</text>
</g>
<!-- main&#45;&gt;add_envopt -->
<g id="edge2" class="edge">
<title>main&#45;&gt;add_envopt</title>
<path fill="none" stroke="#000000" d="M418.6527,-575.8314C418.6527,-568.131 418.6527,-558.9743 418.6527,-550.4166"/>
<polygon fill="#000000" stroke="#000000" points="422.1528,-550.4132 418.6527,-540.4133 415.1528,-550.4133 422.1528,-550.4132"/>
</g>
<!-- getopt_long -->
<g id="node4" class="node">
<title>getopt_long</title>
<ellipse fill="none" stroke="#000000" cx="540.6527" cy="-522" rx="52.2106" ry="18"/>
<text text-anchor="middle" x="540.6527" y="-517.8" font-family="Times,serif" font-size="14.00" fill="#000000">getopt_long</text>
</g>
<!-- main&#45;&gt;getopt_long -->
<g id="edge3" class="edge">
<title>main&#45;&gt;getopt_long</title>
<path fill="none" stroke="#000000" d="M439.3483,-581.7862C457.3128,-571.1842 483.7186,-555.6005 505.0671,-543.0013"/>
<polygon fill="#000000" stroke="#000000" points="507.0343,-545.9045 513.8675,-537.8077 503.4765,-539.876 507.0343,-545.9045"/>
</g>
<!-- treat_file -->
<g id="node7" class="node">
<title>treat_file</title>
<ellipse fill="none" stroke="#000000" cx="307.6527" cy="-522" rx="41.5766" ry="18"/>
<text text-anchor="middle" x="307.6527" y="-517.8" font-family="Times,serif" font-size="14.00" fill="#000000">treat_file</text>
</g>
<!-- main&#45;&gt;treat_file -->
<g id="edge6" class="edge">
<title>main&#45;&gt;treat_file</title>
<path fill="none" stroke="#000000" d="M398.8081,-581.1278C382.2607,-570.3944 358.38,-554.9042 339.2124,-542.4711"/>
<polygon fill="#000000" stroke="#000000" points="341.0748,-539.5074 330.7805,-537.0018 337.2654,-545.3801 341.0748,-539.5074"/>
</g>
<!-- do_exit -->
<g id="node37" class="node">
<title>do_exit</title>
<ellipse fill="none" stroke="#000000" cx="647.6527" cy="-522" rx="36.7663" ry="18"/>
<text text-anchor="middle" x="647.6527" y="-517.8" font-family="Times,serif" font-size="14.00" fill="#000000">do_exit</text>
</g>
<!-- main&#45;&gt;do_exit -->
<g id="edge46" class="edge">
<title>main&#45;&gt;do_exit</title>
<path fill="none" stroke="#000000" d="M444.6338,-587.092C480.3106,-577.4343 546.3408,-558.9434 601.6527,-540 604.2261,-539.1187 606.8679,-538.1794 609.5218,-537.2101"/>
<polygon fill="#000000" stroke="#000000" points="610.9533,-540.4112 619.0838,-533.6182 608.4917,-533.8583 610.9533,-540.4112"/>
</g>
<!-- _getopt_internal -->
<g id="node5" class="node">
<title>_getopt_internal</title>
<ellipse fill="none" stroke="#000000" cx="643.6527" cy="-450" rx="68.1287" ry="18"/>
<text text-anchor="middle" x="643.6527" y="-445.8" font-family="Times,serif" font-size="14.00" fill="#000000">_getopt_internal</text>
</g>
<!-- getopt_long&#45;&gt;_getopt_internal -->
<g id="edge4" class="edge">
<title>getopt_long&#45;&gt;_getopt_internal</title>
<path fill="none" stroke="#000000" d="M563.7679,-505.8418C577.7804,-496.0467 595.87,-483.4015 611.2907,-472.622"/>
<polygon fill="#000000" stroke="#000000" points="613.3495,-475.4532 619.5403,-466.8552 609.339,-469.7159 613.3495,-475.4532"/>
</g>
<!-- my_index -->
<g id="node6" class="node">
<title>my_index</title>
<ellipse fill="none" stroke="#000000" cx="746.6527" cy="-378" rx="45.4527" ry="18"/>
<text text-anchor="middle" x="746.6527" y="-373.8" font-family="Times,serif" font-size="14.00" fill="#000000">my_index</text>
</g>
<!-- _getopt_internal&#45;&gt;my_index -->
<g id="edge5" class="edge">
<title>_getopt_internal&#45;&gt;my_index</title>
<path fill="none" stroke="#000000" d="M667.8016,-433.1192C682.1501,-423.0892 700.4891,-410.2697 715.8696,-399.5183"/>
<polygon fill="#000000" stroke="#000000" points="717.875,-402.3868 724.0658,-393.7889 713.8645,-396.6496 717.875,-402.3868"/>
</g>
<!-- get_istat -->
<g id="node8" class="node">
<title>get_istat</title>
<ellipse fill="none" stroke="#000000" cx="202.6527" cy="-450" rx="40.1403" ry="18"/>
<text text-anchor="middle" x="202.6527" y="-445.8" font-family="Times,serif" font-size="14.00" fill="#000000">get_istat</text>
</g>
<!-- treat_file&#45;&gt;get_istat -->
<g id="edge7" class="edge">
<title>treat_file&#45;&gt;get_istat</title>
<path fill="none" stroke="#000000" d="M285.3849,-506.7307C270.211,-496.3257 249.9259,-482.4159 233.2399,-470.9741"/>
<polygon fill="#000000" stroke="#000000" points="235.1151,-468.0161 224.8884,-465.2473 231.1563,-473.7892 235.1151,-468.0161"/>
</g>
<!-- clear_bufs -->
<g id="node10" class="node">
<title>clear_bufs</title>
<ellipse fill="none" stroke="#000000" cx="307.6527" cy="-450" rx="46.8719" ry="18"/>
<text text-anchor="middle" x="307.6527" y="-445.8" font-family="Times,serif" font-size="14.00" fill="#000000">clear_bufs</text>
</g>
<!-- treat_file&#45;&gt;clear_bufs -->
<g id="edge9" class="edge">
<title>treat_file&#45;&gt;clear_bufs</title>
<path fill="none" stroke="#000000" d="M307.6527,-503.8314C307.6527,-496.131 307.6527,-486.9743 307.6527,-478.4166"/>
<polygon fill="#000000" stroke="#000000" points="311.1528,-478.4132 307.6527,-468.4133 304.1528,-478.4133 311.1528,-478.4132"/>
</g>
<!-- zip -->
<g id="node11" class="node">
<title>zip</title>
<ellipse fill="none" stroke="#000000" cx="399.6527" cy="-450" rx="27" ry="18"/>
<text text-anchor="middle" x="399.6527" y="-445.8" font-family="Times,serif" font-size="14.00" fill="#000000">zip</text>
</g>
<!-- treat_file&#45;&gt;zip -->
<g id="edge10" class="edge">
<title>treat_file&#45;&gt;zip</title>
<path fill="none" stroke="#000000" d="M328.0705,-506.0209C341.6117,-495.4234 359.4896,-481.432 373.991,-470.083"/>
<polygon fill="#000000" stroke="#000000" points="376.3628,-472.6713 382.0808,-463.7519 372.0486,-467.1588 376.3628,-472.6713"/>
</g>
<!-- do_stat -->
<g id="node9" class="node">
<title>do_stat</title>
<ellipse fill="none" stroke="#000000" cx="35.6527" cy="-378" rx="35.806" ry="18"/>
<text text-anchor="middle" x="35.6527" y="-373.8" font-family="Times,serif" font-size="14.00" fill="#000000">do_stat</text>
</g>
<!-- get_istat&#45;&gt;do_stat -->
<g id="edge8" class="edge">
<title>get_istat&#45;&gt;do_stat</title>
<path fill="none" stroke="#000000" d="M173.5635,-437.4586C145.4835,-425.3522 102.8627,-406.9768 72.4399,-393.8603"/>
<polygon fill="#000000" stroke="#000000" points="73.5934,-390.5463 63.0248,-389.8012 70.822,-396.9743 73.5934,-390.5463"/>
</g>
<!-- zip&#45;&gt;basename -->
<g id="edge21" class="edge">
<title>zip&#45;&gt;basename</title>
<path fill="none" stroke="#000000" d="M378.723,-438.4156C373.8756,-436.0499 368.6661,-433.7518 363.6527,-432 290.7445,-406.5239 268.4368,-415.2867 193.6527,-396 189.0349,-394.8091 184.2383,-393.4878 179.465,-392.1176"/>
<polygon fill="#000000" stroke="#000000" points="180.3456,-388.7284 169.7643,-389.2624 178.3691,-395.4436 180.3456,-388.7284"/>
</g>
<!-- updcrc -->
<g id="node12" class="node">
<title>updcrc</title>
<ellipse fill="none" stroke="#000000" cx="197.6527" cy="-162" rx="34.3354" ry="18"/>
<text text-anchor="middle" x="197.6527" y="-157.8" font-family="Times,serif" font-size="14.00" fill="#000000">updcrc</text>
</g>
<!-- zip&#45;&gt;updcrc -->
<g id="edge11" class="edge">
<title>zip&#45;&gt;updcrc</title>
<path fill="none" stroke="#000000" d="M379.3025,-438.0194C337.7237,-413.1134 245.3626,-355.4552 226.6527,-324 201.8743,-282.3424 197.2007,-224.7575 196.8674,-190.6465"/>
<polygon fill="#000000" stroke="#000000" points="200.3677,-190.4546 196.8916,-180.4463 193.3677,-190.4379 200.3677,-190.4546"/>
</g>
<!-- bi_init -->
<g id="node13" class="node">
<title>bi_init</title>
<ellipse fill="none" stroke="#000000" cx="522.6527" cy="-378" rx="33.4012" ry="18"/>
<text text-anchor="middle" x="522.6527" y="-373.8" font-family="Times,serif" font-size="14.00" fill="#000000">bi_init</text>
</g>
<!-- zip&#45;&gt;bi_init -->
<g id="edge12" class="edge">
<title>zip&#45;&gt;bi_init</title>
<path fill="none" stroke="#000000" d="M419.9636,-438.1107C439.2742,-426.8069 468.6118,-409.6337 490.9915,-396.5334"/>
<polygon fill="#000000" stroke="#000000" points="492.9391,-399.4489 499.8011,-391.3765 489.4028,-393.4078 492.9391,-399.4489"/>
</g>
<!-- ct_init -->
<g id="node14" class="node">
<title>ct_init</title>
<ellipse fill="none" stroke="#000000" cx="915.6527" cy="-306" rx="32.9081" ry="18"/>
<text text-anchor="middle" x="915.6527" y="-301.8" font-family="Times,serif" font-size="14.00" fill="#000000">ct_init</text>
</g>
<!-- zip&#45;&gt;ct_init -->
<g id="edge13" class="edge">
<title>zip&#45;&gt;ct_init</title>
<path fill="none" stroke="#000000" d="M412.082,-433.5969C430.2538,-410.0989 463.7438,-368.7186 480.6527,-360 605.5029,-295.6246 655.3849,-342.337 794.6527,-324 821.157,-320.5102 850.8504,-316.1006 874.1892,-312.5193"/>
<polygon fill="#000000" stroke="#000000" points="874.7528,-315.9738 884.1019,-310.9895 873.6851,-309.0557 874.7528,-315.9738"/>
</g>
<!-- lm_init -->
<g id="node18" class="node">
<title>lm_init</title>
<ellipse fill="none" stroke="#000000" cx="271.6527" cy="-306" rx="35.8147" ry="18"/>
<text text-anchor="middle" x="271.6527" y="-301.8" font-family="Times,serif" font-size="14.00" fill="#000000">lm_init</text>
</g>
<!-- zip&#45;&gt;lm_init -->
<g id="edge18" class="edge">
<title>zip&#45;&gt;lm_init</title>
<path fill="none" stroke="#000000" d="M385.7108,-434.3154C363.4417,-409.2627 319.6754,-360.0255 293.3068,-330.3609"/>
<polygon fill="#000000" stroke="#000000" points="295.6228,-327.6982 286.3632,-322.5494 290.391,-332.3488 295.6228,-327.6982"/>
</g>
<!-- deflate -->
<g id="node20" class="node">
<title>deflate</title>
<ellipse fill="none" stroke="#000000" cx="399.6527" cy="-378" rx="33.8596" ry="18"/>
<text text-anchor="middle" x="399.6527" y="-373.8" font-family="Times,serif" font-size="14.00" fill="#000000">deflate</text>
</g>
<!-- zip&#45;&gt;deflate -->
<g id="edge22" class="edge">
<title>zip&#45;&gt;deflate</title>
<path fill="none" stroke="#000000" d="M399.6527,-431.8314C399.6527,-424.131 399.6527,-414.9743 399.6527,-406.4166"/>
<polygon fill="#000000" stroke="#000000" points="403.1528,-406.4132 399.6527,-396.4133 396.1528,-406.4133 403.1528,-406.4132"/>
</g>
<!-- flush_outbuf -->
<g id="node35" class="node">
<title>flush_outbuf</title>
<ellipse fill="none" stroke="#000000" cx="628.6527" cy="-378" rx="54.642" ry="18"/>
<text text-anchor="middle" x="628.6527" y="-373.8" font-family="Times,serif" font-size="14.00" fill="#000000">flush_outbuf</text>
</g>
<!-- zip&#45;&gt;flush_outbuf -->
<g id="edge44" class="edge">
<title>zip&#45;&gt;flush_outbuf</title>
<path fill="none" stroke="#000000" d="M424.1597,-442.2947C461,-430.7118 531.4178,-408.5717 579.2076,-393.5461"/>
<polygon fill="#000000" stroke="#000000" points="580.5519,-396.7924 589.0417,-390.4541 578.4523,-390.1147 580.5519,-396.7924"/>
</g>
<!-- gen_codes -->
<g id="node15" class="node">
<title>gen_codes</title>
<ellipse fill="none" stroke="#000000" cx="953.6527" cy="-90" rx="47.365" ry="18"/>
<text text-anchor="middle" x="953.6527" y="-85.8" font-family="Times,serif" font-size="14.00" fill="#000000">gen_codes</text>
</g>
<!-- ct_init&#45;&gt;gen_codes -->
<g id="edge14" class="edge">
<title>ct_init&#45;&gt;gen_codes</title>
<path fill="none" stroke="#000000" d="M936.7732,-291.9469C949.1903,-282.3455 963.7665,-268.4113 970.6527,-252 989.2948,-207.5715 975.5935,-150.5257 964.3425,-117.3354"/>
<polygon fill="#000000" stroke="#000000" points="967.615,-116.0916 960.968,-107.8412 961.0192,-118.4359 967.615,-116.0916"/>
</g>
<!-- bi_reverse -->
<g id="node16" class="node">
<title>bi_reverse</title>
<ellipse fill="none" stroke="#000000" cx="990.6527" cy="-18" rx="46.8719" ry="18"/>
<text text-anchor="middle" x="990.6527" y="-13.8" font-family="Times,serif" font-size="14.00" fill="#000000">bi_reverse</text>
</g>
<!-- ct_init&#45;&gt;bi_reverse -->
<g id="edge16" class="edge">
<title>ct_init&#45;&gt;bi_reverse</title>
<path fill="none" stroke="#000000" d="M940.7626,-294.0554C957.1398,-284.8998 977.4798,-270.6663 988.6527,-252 1030.0182,-182.8913 1023.2125,-151.393 1009.6527,-72 1008.1539,-63.2245 1005.3776,-53.9785 1002.4014,-45.6659"/>
<polygon fill="#000000" stroke="#000000" points="1005.58,-44.1782 998.7444,-36.0835 999.0401,-46.6742 1005.58,-44.1782"/>
</g>
<!-- init_block -->
<g id="node17" class="node">
<title>init_block</title>
<ellipse fill="none" stroke="#000000" cx="915.6527" cy="-234" rx="45.9373" ry="18"/>
<text text-anchor="middle" x="915.6527" y="-229.8" font-family="Times,serif" font-size="14.00" fill="#000000">init_block</text>
</g>
<!-- ct_init&#45;&gt;init_block -->
<g id="edge17" class="edge">
<title>ct_init&#45;&gt;init_block</title>
<path fill="none" stroke="#000000" d="M915.6527,-287.8314C915.6527,-280.131 915.6527,-270.9743 915.6527,-262.4166"/>
<polygon fill="#000000" stroke="#000000" points="919.1528,-262.4132 915.6527,-252.4133 912.1528,-262.4133 919.1528,-262.4132"/>
</g>
<!-- gen_codes&#45;&gt;bi_reverse -->
<g id="edge15" class="edge">
<title>gen_codes&#45;&gt;bi_reverse</title>
<path fill="none" stroke="#000000" d="M962.7988,-72.2022C967.0236,-63.981 972.1316,-54.041 976.8136,-44.9301"/>
<polygon fill="#000000" stroke="#000000" points="980.0259,-46.3366 981.4836,-35.8425 973.7998,-43.1371 980.0259,-46.3366"/>
</g>
<!-- file_read -->
<g id="node19" class="node">
<title>file_read</title>
<ellipse fill="none" stroke="#000000" cx="276.6527" cy="-234" rx="41.092" ry="18"/>
<text text-anchor="middle" x="276.6527" y="-229.8" font-family="Times,serif" font-size="14.00" fill="#000000">file_read</text>
</g>
<!-- lm_init&#45;&gt;file_read -->
<g id="edge19" class="edge">
<title>lm_init&#45;&gt;file_read</title>
<path fill="none" stroke="#000000" d="M272.9144,-287.8314C273.4492,-280.131 274.085,-270.9743 274.6793,-262.4166"/>
<polygon fill="#000000" stroke="#000000" points="278.1727,-262.6317 275.374,-252.4133 271.1895,-262.1467 278.1727,-262.6317"/>
</g>
<!-- file_read&#45;&gt;updcrc -->
<g id="edge20" class="edge">
<title>file_read&#45;&gt;updcrc</title>
<path fill="none" stroke="#000000" d="M258.7264,-217.6621C247.9713,-207.86 234.1382,-195.2526 222.3574,-184.5157"/>
<polygon fill="#000000" stroke="#000000" points="224.7137,-181.9277 214.9652,-177.7784 219.9985,-187.1014 224.7137,-181.9277"/>
</g>
<!-- ct_tally -->
<g id="node21" class="node">
<title>ct_tally</title>
<ellipse fill="none" stroke="#000000" cx="748.6527" cy="-306" rx="36.7576" ry="18"/>
<text text-anchor="middle" x="748.6527" y="-301.8" font-family="Times,serif" font-size="14.00" fill="#000000">ct_tally</text>
</g>
<!-- deflate&#45;&gt;ct_tally -->
<g id="edge23" class="edge">
<title>deflate&#45;&gt;ct_tally</title>
<path fill="none" stroke="#000000" d="M426.232,-366.8549C433.1144,-364.2965 440.5807,-361.8021 447.6527,-360 558.5655,-331.7372 591.9436,-353.0505 702.6527,-324 705.4522,-323.2654 708.3131,-322.4116 711.1705,-321.4829"/>
<polygon fill="#000000" stroke="#000000" points="712.5077,-324.7228 720.7779,-318.1006 710.1831,-318.12 712.5077,-324.7228"/>
</g>
<!-- longest_match -->
<g id="node22" class="node">
<title>longest_match</title>
<ellipse fill="none" stroke="#000000" cx="511.6527" cy="-306" rx="61.8649" ry="18"/>
<text text-anchor="middle" x="511.6527" y="-301.8" font-family="Times,serif" font-size="14.00" fill="#000000">longest_match</text>
</g>
<!-- deflate&#45;&gt;longest_match -->
<g id="edge24" class="edge">
<title>deflate&#45;&gt;longest_match</title>
<path fill="none" stroke="#000000" d="M421.2474,-364.1177C437.0893,-353.9336 458.9287,-339.894 477.1736,-328.1651"/>
<polygon fill="#000000" stroke="#000000" points="479.2803,-330.9717 485.7994,-322.62 475.4949,-325.0835 479.2803,-330.9717"/>
</g>
<!-- fill_window -->
<g id="node23" class="node">
<title>fill_window</title>
<ellipse fill="none" stroke="#000000" cx="378.6527" cy="-306" rx="52.7124" ry="18"/>
<text text-anchor="middle" x="378.6527" y="-301.8" font-family="Times,serif" font-size="14.00" fill="#000000">fill_window</text>
</g>
<!-- deflate&#45;&gt;fill_window -->
<g id="edge25" class="edge">
<title>deflate&#45;&gt;fill_window</title>
<path fill="none" stroke="#000000" d="M394.4617,-360.2022C392.1319,-352.2146 389.329,-342.6045 386.7344,-333.7087"/>
<polygon fill="#000000" stroke="#000000" points="390.0899,-332.7131 383.9299,-324.0931 383.3699,-334.6731 390.0899,-332.7131"/>
</g>
<!-- flush_block -->
<g id="node24" class="node">
<title>flush_block</title>
<ellipse fill="none" stroke="#000000" cx="642.6527" cy="-306" rx="51.2587" ry="18"/>
<text text-anchor="middle" x="642.6527" y="-301.8" font-family="Times,serif" font-size="14.00" fill="#000000">flush_block</text>
</g>
<!-- deflate&#45;&gt;flush_block -->
<g id="edge27" class="edge">
<title>deflate&#45;&gt;flush_block</title>
<path fill="none" stroke="#000000" d="M426.9042,-367.2516C433.6409,-364.7414 440.8714,-362.1699 447.6527,-360 506.7954,-341.0754 522.9067,-340.9237 582.6527,-324 586.2659,-322.9765 589.9961,-321.9016 593.7458,-320.8079"/>
<polygon fill="#000000" stroke="#000000" points="595.047,-324.0734 603.6508,-317.8907 593.0693,-317.3585 595.047,-324.0734"/>
</g>
<!-- fill_window&#45;&gt;file_read -->
<g id="edge26" class="edge">
<title>fill_window&#45;&gt;file_read</title>
<path fill="none" stroke="#000000" d="M355.5073,-289.6621C341.1251,-279.5099 322.4797,-266.3485 306.9307,-255.3727"/>
<polygon fill="#000000" stroke="#000000" points="308.8457,-252.4404 298.6576,-249.5329 304.8089,-258.1592 308.8457,-252.4404"/>
</g>
<!-- flush_block&#45;&gt;init_block -->
<g id="edge42" class="edge">
<title>flush_block&#45;&gt;init_block</title>
<path fill="none" stroke="#000000" d="M681.2861,-294.0363C688.3718,-291.9486 695.7186,-289.8541 702.6527,-288 770.1389,-269.9552 788.1665,-270.0448 855.6527,-252 860.2689,-250.7657 865.0679,-249.4249 869.8511,-248.0504"/>
<polygon fill="#000000" stroke="#000000" points="870.967,-251.3707 879.5832,-245.2053 869.0028,-244.652 870.967,-251.3707"/>
</g>
<!-- build_tree -->
<g id="node25" class="node">
<title>build_tree</title>
<ellipse fill="none" stroke="#000000" cx="840.6527" cy="-162" rx="45.92" ry="18"/>
<text text-anchor="middle" x="840.6527" y="-157.8" font-family="Times,serif" font-size="14.00" fill="#000000">build_tree</text>
</g>
<!-- flush_block&#45;&gt;build_tree -->
<g id="edge28" class="edge">
<title>flush_block&#45;&gt;build_tree</title>
<path fill="none" stroke="#000000" d="M681.71,-294.2828C734.6495,-278.401 822.6527,-252 822.6527,-252 837.6746,-235.4942 841.6471,-210.1091 842.1642,-190.5017"/>
<polygon fill="#000000" stroke="#000000" points="845.6639,-190.2892 842.1442,-180.2961 838.6639,-190.303 845.6639,-190.2892"/>
</g>
<!-- build_bl_tree -->
<g id="node28" class="node">
<title>build_bl_tree</title>
<ellipse fill="none" stroke="#000000" cx="642.6527" cy="-234" rx="57.0219" ry="18"/>
<text text-anchor="middle" x="642.6527" y="-229.8" font-family="Times,serif" font-size="14.00" fill="#000000">build_bl_tree</text>
</g>
<!-- flush_block&#45;&gt;build_bl_tree -->
<g id="edge32" class="edge">
<title>flush_block&#45;&gt;build_bl_tree</title>
<path fill="none" stroke="#000000" d="M642.6527,-287.8314C642.6527,-280.131 642.6527,-270.9743 642.6527,-262.4166"/>
<polygon fill="#000000" stroke="#000000" points="646.1528,-262.4132 642.6527,-252.4133 639.1528,-262.4133 646.1528,-262.4132"/>
</g>
<!-- send_bits -->
<g id="node30" class="node">
<title>send_bits</title>
<ellipse fill="none" stroke="#000000" cx="449.6527" cy="-90" rx="43.5319" ry="18"/>
<text text-anchor="middle" x="449.6527" y="-85.8" font-family="Times,serif" font-size="14.00" fill="#000000">send_bits</text>
</g>
<!-- flush_block&#45;&gt;send_bits -->
<g id="edge35" class="edge">
<title>flush_block&#45;&gt;send_bits</title>
<path fill="none" stroke="#000000" d="M617.1665,-290.1817C603.5207,-280.5917 587.3649,-267.2717 576.6527,-252 547.4319,-210.3421 570.7228,-183.5062 538.6527,-144 525.8703,-128.2537 507.1926,-115.936 490.2442,-107.0667"/>
<polygon fill="#000000" stroke="#000000" points="491.5669,-103.8156 481.0548,-102.4942 488.4485,-110.0826 491.5669,-103.8156"/>
</g>
<!-- send_all_trees -->
<g id="node31" class="node">
<title>send_all_trees</title>
<ellipse fill="none" stroke="#000000" cx="468.6527" cy="-234" rx="60.8873" ry="18"/>
<text text-anchor="middle" x="468.6527" y="-229.8" font-family="Times,serif" font-size="14.00" fill="#000000">send_all_trees</text>
</g>
<!-- flush_block&#45;&gt;send_all_trees -->
<g id="edge36" class="edge">
<title>flush_block&#45;&gt;send_all_trees</title>
<path fill="none" stroke="#000000" d="M609.1037,-292.1177C581.925,-280.8713 543.3834,-264.9231 513.5477,-252.5772"/>
<polygon fill="#000000" stroke="#000000" points="514.7705,-249.2955 504.1921,-248.706 512.094,-255.7636 514.7705,-249.2955"/>
</g>
<!-- compress_block -->
<g id="node33" class="node">
<title>compress_block</title>
<ellipse fill="none" stroke="#000000" cx="317.6527" cy="-162" rx="67.6529" ry="18"/>
<text text-anchor="middle" x="317.6527" y="-157.8" font-family="Times,serif" font-size="14.00" fill="#000000">compress_block</text>
</g>
<!-- flush_block&#45;&gt;compress_block -->
<g id="edge40" class="edge">
<title>flush_block&#45;&gt;compress_block</title>
<path fill="none" stroke="#000000" d="M604.3974,-293.9126C597.207,-291.8148 589.7262,-289.7485 582.6527,-288 501.7592,-268.0038 471.1482,-293.0853 398.6527,-252 371.6086,-236.6733 348.781,-209.0234 334.3224,-188.4009"/>
<polygon fill="#000000" stroke="#000000" points="337.1641,-186.3554 328.6503,-180.0493 331.3733,-190.2882 337.1641,-186.3554"/>
</g>
<!-- bi_windup -->
<g id="node34" class="node">
<title>bi_windup</title>
<ellipse fill="none" stroke="#000000" cx="765.6527" cy="-234" rx="47.8754" ry="18"/>
<text text-anchor="middle" x="765.6527" y="-229.8" font-family="Times,serif" font-size="14.00" fill="#000000">bi_windup</text>
</g>
<!-- flush_block&#45;&gt;bi_windup -->
<g id="edge43" class="edge">
<title>flush_block&#45;&gt;bi_windup</title>
<path fill="none" stroke="#000000" d="M669.0393,-290.5542C687.1585,-279.9478 711.3931,-265.7617 731.0571,-254.2511"/>
<polygon fill="#000000" stroke="#000000" points="732.8699,-257.2455 739.7319,-249.1731 729.3336,-251.2044 732.8699,-257.2455"/>
</g>
<!-- build_tree&#45;&gt;gen_codes -->
<g id="edge31" class="edge">
<title>build_tree&#45;&gt;gen_codes</title>
<path fill="none" stroke="#000000" d="M864.894,-146.5542C881.0193,-136.2797 902.4168,-122.6459 920.1621,-111.3392"/>
<polygon fill="#000000" stroke="#000000" points="922.5088,-113.9941 929.0615,-105.6687 918.7472,-108.0906 922.5088,-113.9941"/>
</g>
<!-- pqdownheap -->
<g id="node26" class="node">
<title>pqdownheap</title>
<ellipse fill="none" stroke="#000000" cx="719.6527" cy="-90" rx="55.0922" ry="18"/>
<text text-anchor="middle" x="719.6527" y="-85.8" font-family="Times,serif" font-size="14.00" fill="#000000">pqdownheap</text>
</g>
<!-- build_tree&#45;&gt;pqdownheap -->
<g id="edge29" class="edge">
<title>build_tree&#45;&gt;pqdownheap</title>
<path fill="none" stroke="#000000" d="M815.2871,-146.9064C797.8184,-136.5118 774.3691,-122.5585 755.0626,-111.0703"/>
<polygon fill="#000000" stroke="#000000" points="756.6252,-107.9274 746.2417,-105.8216 753.0457,-113.943 756.6252,-107.9274"/>
</g>
<!-- gen_bitlen -->
<g id="node27" class="node">
<title>gen_bitlen</title>
<ellipse fill="none" stroke="#000000" cx="840.6527" cy="-90" rx="47.3736" ry="18"/>
<text text-anchor="middle" x="840.6527" y="-85.8" font-family="Times,serif" font-size="14.00" fill="#000000">gen_bitlen</text>
</g>
<!-- build_tree&#45;&gt;gen_bitlen -->
<g id="edge30" class="edge">
<title>build_tree&#45;&gt;gen_bitlen</title>
<path fill="none" stroke="#000000" d="M840.6527,-143.8314C840.6527,-136.131 840.6527,-126.9743 840.6527,-118.4166"/>
<polygon fill="#000000" stroke="#000000" points="844.1528,-118.4132 840.6527,-108.4133 837.1528,-118.4133 844.1528,-118.4132"/>
</g>
<!-- build_bl_tree&#45;&gt;build_tree -->
<g id="edge34" class="edge">
<title>build_bl_tree&#45;&gt;build_tree</title>
<path fill="none" stroke="#000000" d="M680.361,-220.2879C713.6932,-208.1671 762.3079,-190.489 797.2495,-177.783"/>
<polygon fill="#000000" stroke="#000000" points="798.5163,-181.0466 806.7182,-174.3398 796.1241,-174.468 798.5163,-181.0466"/>
</g>
<!-- scan_tree -->
<g id="node29" class="node">
<title>scan_tree</title>
<ellipse fill="none" stroke="#000000" cx="642.6527" cy="-162" rx="43.4887" ry="18"/>
<text text-anchor="middle" x="642.6527" y="-157.8" font-family="Times,serif" font-size="14.00" fill="#000000">scan_tree</text>
</g>
<!-- build_bl_tree&#45;&gt;scan_tree -->
<g id="edge33" class="edge">
<title>build_bl_tree&#45;&gt;scan_tree</title>
<path fill="none" stroke="#000000" d="M642.6527,-215.8314C642.6527,-208.131 642.6527,-198.9743 642.6527,-190.4166"/>
<polygon fill="#000000" stroke="#000000" points="646.1528,-190.4132 642.6527,-180.4133 639.1528,-190.4133 646.1528,-190.4132"/>
</g>
<!-- send_all_trees&#45;&gt;send_bits -->
<g id="edge37" class="edge">
<title>send_all_trees&#45;&gt;send_bits</title>
<path fill="none" stroke="#000000" d="M453.0385,-216.4004C445.2742,-206.4593 436.7014,-193.372 432.6527,-180 426.4221,-159.4216 431.5159,-135.4736 437.7096,-117.4564"/>
<polygon fill="#000000" stroke="#000000" points="441.0737,-118.4528 441.302,-107.8604 434.5181,-115.9985 441.0737,-118.4528"/>
</g>
<!-- send_tree -->
<g id="node32" class="node">
<title>send_tree</title>
<ellipse fill="none" stroke="#000000" cx="485.6527" cy="-162" rx="43.9819" ry="18"/>
<text text-anchor="middle" x="485.6527" y="-157.8" font-family="Times,serif" font-size="14.00" fill="#000000">send_tree</text>
</g>
<!-- send_all_trees&#45;&gt;send_tree -->
<g id="edge38" class="edge">
<title>send_all_trees&#45;&gt;send_tree</title>
<path fill="none" stroke="#000000" d="M472.9425,-215.8314C474.7607,-208.131 476.9226,-198.9743 478.9432,-190.4166"/>
<polygon fill="#000000" stroke="#000000" points="482.4135,-190.95 481.3051,-180.4133 475.6008,-189.3414 482.4135,-190.95"/>
</g>
<!-- send_tree&#45;&gt;send_bits -->
<g id="edge39" class="edge">
<title>send_tree&#45;&gt;send_bits</title>
<path fill="none" stroke="#000000" d="M476.7538,-144.2022C472.6432,-135.981 467.6732,-126.041 463.1178,-116.9301"/>
<polygon fill="#000000" stroke="#000000" points="466.1767,-115.2216 458.574,-107.8425 459.9157,-118.3521 466.1767,-115.2216"/>
</g>
<!-- compress_block&#45;&gt;send_bits -->
<g id="edge41" class="edge">
<title>compress_block&#45;&gt;send_bits</title>
<path fill="none" stroke="#000000" d="M347.6055,-145.6621C367.3511,-134.8918 393.306,-120.7346 414.0983,-109.3933"/>
<polygon fill="#000000" stroke="#000000" points="415.85,-112.4247 422.9529,-104.5635 412.498,-106.2794 415.85,-112.4247"/>
</g>
<!-- write_buf -->
<g id="node36" class="node">
<title>write_buf</title>
<ellipse fill="none" stroke="#000000" cx="1010.6527" cy="-306" rx="44.475" ry="18"/>
<text text-anchor="middle" x="1010.6527" y="-301.8" font-family="Times,serif" font-size="14.00" fill="#000000">write_buf</text>
</g>
<!-- flush_outbuf&#45;&gt;write_buf -->
<g id="edge45" class="edge">
<title>flush_outbuf&#45;&gt;write_buf</title>
<path fill="none" stroke="#000000" d="M669.071,-365.7153C676.8497,-363.6121 684.9677,-361.5946 692.6527,-360 809.0333,-335.8512 841.956,-351.2375 957.6527,-324 961.0668,-323.1962 964.5717,-322.2613 968.074,-321.2482"/>
<polygon fill="#000000" stroke="#000000" points="969.3355,-324.5219 977.8597,-318.2299 967.2723,-317.8328 969.3355,-324.5219"/>
</g>
</g>
</svg>
